<?xml version="1.0" encoding="utf-8"?>
<!-- Generator: Adobe Illustrator 25.2.3, SVG Export Plug-In . SVG Version: 6.00 Build 0)  -->
<svg version="1.1" id="Layer_1" xmlns="http://www.w3.org/2000/svg" xmlns:xlink="http://www.w3.org/1999/xlink" x="0px" y="0px"
	 viewBox="0 0 800 500" style="enable-background:new 0 0 800 500;" xml:space="preserve">
<style type="text/css">
	.st0{fill:none;stroke:#414141;stroke-width:4;stroke-miterlimit:10;}
	.st1{fill:#FFFFFF;stroke:#414141;stroke-width:4;stroke-miterlimit:10;}
	.st2{fill:#59ADDF;stroke:#414141;stroke-width:4;stroke-linejoin:round;stroke-miterlimit:10;}
	.st3{fill:#B5E1F8;stroke:#414141;stroke-width:4;stroke-miterlimit:10;}
	.st4{fill:#61C19B;stroke:#414141;stroke-width:4;stroke-linecap:round;stroke-linejoin:round;stroke-miterlimit:10;}
	.st5{fill:none;stroke:#414141;stroke-width:4;stroke-linecap:round;stroke-linejoin:round;stroke-miterlimit:10;}
	.st6{fill:#414141;}
	.st7{fill:#B5E1F8;stroke:#414141;stroke-width:4;stroke-linejoin:round;stroke-miterlimit:10;}
</style>
<path class="st0" d="M263,291.9h216.1 M320.7,250.9c0,22.6-18.4,41-41,41 M320.7,250.9c0-22.6,18.4-41,41-41h118.7"/>
<circle class="st1" cx="405.1" cy="209.9" r="21"/>
<ellipse transform="matrix(0.1602 -0.9871 0.9871 0.1602 213.895 671.2034)" class="st2" cx="501.4" cy="209.9" rx="21" ry="21"/>
<path class="st0" d="M205.7,291.9h74"/>
<circle class="st1" cx="226.7" cy="291.9" r="21"/>
<circle class="st3" cx="404.1" cy="291.9" r="21"/>
<ellipse transform="matrix(0.1602 -0.9871 0.9871 0.1602 131.862 738.7852)" class="st3" cx="500.1" cy="291.9" rx="21" ry="21"/>
<path class="st4" d="M408.3,69h186.2v50H408.3V69z"/>
<path class="st5" d="M501.4,164.8v-23.5 M512.2,156.1l-10.8,10.8l-10.9-10.8"/>
<path class="st6" d="M434.7,88.7c2,0,3.2,1.2,3.2,2.9c0,1.1-0.7,2-1.6,2.3c1.2,0.3,1.9,1.4,1.9,2.6c0,1.7-1.3,2.9-3.3,2.9h-3.7V88.7
	H434.7z M434.6,93.4c1.2,0,1.9-0.7,1.9-1.7s-0.7-1.7-2-1.7h-1.8v3.4C432.7,93.4,434.6,93.4,434.6,93.4z M434.8,98.1
	c1.2,0,2-0.7,2-1.7s-0.6-1.7-1.9-1.7h-2.1v3.4C432.8,98.1,434.8,98.1,434.8,98.1z"/>
<path class="st6" d="M444.8,93.6c-0.2,0-0.4,0-0.6,0c-1.2,0-2,0.6-2,2.2v3.6h-1.4v-7.2h1.4v1.3c0.5-1.1,1.4-1.4,2.2-1.4
	c0.2,0,0.4,0,0.5,0v1.5H444.8z"/>
<path class="st6" d="M448.8,95.3l2-0.3c0.4-0.1,0.6-0.3,0.6-0.5c0-0.7-0.5-1.3-1.6-1.3c-1,0-1.5,0.6-1.6,1.5l-1.3-0.3
	c0.1-1.4,1.4-2.3,3-2.3c2.2,0,3,1.2,3,2.6v3.6c0,0.6,0.1,1,0.1,1.2h-1.4c0-0.2-0.1-0.5-0.1-1c-0.3,0.5-1,1.2-2.3,1.2
	c-1.5,0-2.4-1-2.4-2.2C446.6,96.2,447.6,95.4,448.8,95.3z M451.3,96.3V96l-2.2,0.3c-0.6,0.1-1.1,0.4-1.1,1.1c0,0.5,0.5,1,1.2,1
	C450.4,98.4,451.3,97.9,451.3,96.3z"/>
<path class="st6" d="M457.1,99.4h-1.4v-7.2h1.4v1c0.5-0.9,1.4-1.2,2.2-1.2c1.7,0,2.6,1.2,2.6,2.8v4.6h-1.4V95c0-1-0.4-1.8-1.7-1.8
	c-1.1,0-1.7,0.9-1.7,2V99.4z"/>
<path class="st6" d="M465.7,95.8c0,1.7,1,2.5,2.2,2.5c1.3,0,1.8-0.9,2-1.5l1.2,0.5c-0.3,1-1.4,2.2-3.3,2.2c-2.1,0-3.6-1.6-3.6-3.8
	c0-2.2,1.6-3.8,3.6-3.8c1.9,0,2.9,1.2,3.2,2.3l-1.3,0.5c-0.2-0.7-0.7-1.5-1.9-1.5C466.7,93.2,465.7,94.1,465.7,95.8z"/>
<path class="st6" d="M475,99.4h-1.4V88.5h1.4V93c0.5-0.8,1.4-1,2.2-1c1.7,0,2.6,1.2,2.6,2.8v4.6h-1.4V95c0-1-0.4-1.8-1.7-1.8
	c-1.1,0-1.7,0.8-1.7,1.9V99.4z"/>
<path class="st6" d="M492.8,92.2l1.9,5.4l1.6-5.4h1.5l-2.3,7.2H494l-1.9-5.5l-1.9,5.5h-1.5l-2.4-7.2h1.5l1.6,5.4l1.9-5.4H492.8z"/>
<path class="st6" d="M500.6,88.4c0.6,0,1,0.5,1,1c0,0.6-0.5,1-1,1c-0.6,0-1-0.5-1-1S500,88.4,500.6,88.4z M499.9,99.4v-7.2h1.4v7.2
	H499.9z"/>
<path class="st6" d="M506.3,92.2h1.6v1.3h-1.6v3.8c0,0.7,0.3,1,1,1c0.2,0,0.4,0,0.6-0.1v1.2c-0.1,0-0.5,0.1-1,0.1
	c-1.2,0-2-0.8-2-2.1v-4h-1.4v-1.3h0.4c0.8,0,1.1-0.5,1.1-1.1v-1.2h1.3V92.2z"/>
<path class="st6" d="M511.9,99.4h-1.4V88.5h1.4V93c0.5-0.8,1.4-1,2.2-1c1.7,0,2.6,1.2,2.6,2.8v4.6h-1.4V95c0-1-0.4-1.8-1.7-1.8
	c-1.1,0-1.7,0.8-1.7,1.9L511.9,99.4L511.9,99.4z"/>
<path class="st6" d="M524.2,99.4V88.5h1.4v4.7c0.3-0.6,1.2-1.2,2.4-1.2c2.2,0,3.3,1.7,3.3,3.8c0,2.1-1.2,3.8-3.4,3.8
	c-1.1,0-1.9-0.5-2.3-1.2v1C525.6,99.4,524.2,99.4,524.2,99.4z M527.7,93.2c-1.2,0-2.1,1-2.1,2.5c0,1.6,0.9,2.6,2.1,2.6
	c1.3,0,2.1-1,2.1-2.6C529.8,94.2,529,93.2,527.7,93.2z"/>
<path class="st6" d="M536.4,99.6c-1.7,0-2.7-1.3-2.7-2.9v-4.5h1.4v4.3c0,1,0.5,1.9,1.6,1.9s1.7-0.8,1.7-1.8v-4.3h1.4V98
	c0,0.6,0,1.1,0.1,1.3h-1.3c0-0.2-0.1-0.6-0.1-0.9C538.1,99.3,537.2,99.6,536.4,99.6z"/>
<path class="st6" d="M543.8,99.5c0.1,1,0.9,1.8,2,1.8c1.5,0,2.2-0.8,2.2-2.3v-1c-0.3,0.7-1.1,1.2-2.2,1.2c-1.9,0-3.3-1.5-3.3-3.5
	s1.3-3.5,3.3-3.5c1.1,0,1.9,0.4,2.2,1.1v-1h1.4V99c0,1.8-0.9,3.6-3.6,3.6c-1.8,0-3.2-1.1-3.3-2.7L543.8,99.5z M548,95.5
	c0-1.4-0.8-2.3-2.1-2.3c-1.2,0-2.1,0.9-2.1,2.3s0.8,2.3,2.1,2.3C547.1,97.8,548,96.9,548,95.5z"/>
<path class="st6" d="M560.5,88.6v1.3c-0.1,0-0.3-0.1-0.6-0.1c-0.5,0-1.1,0.2-1.1,1.2v1.2h4.8v7.2h-1.4v-5.9h-3.4v5.9h-1.5v-5.9H556
	v-1.3h1.3V91c0-1.6,1.1-2.5,2.4-2.5C560.1,88.5,560.4,88.6,560.5,88.6z M562.8,88.4c0.6,0,1,0.4,1,1s-0.5,1-1,1c-0.6,0-1-0.5-1-1
	C561.8,88.8,562.2,88.4,562.8,88.4z"/>
<path class="st6" d="M568.3,95.7l-2.6-3.5h1.7l1.8,2.5l1.7-2.5h1.7l-2.6,3.5c0.4,0.6,2.2,3.1,2.7,3.7H571l-1.9-2.7l-1.8,2.7h-1.7
	L568.3,95.7z"/>
<path class="st5" d="M500.7,334.6v23.5 M489.8,343.3l10.9-10.8l10.8,10.8"/>
<g>
	<path class="st7" d="M429.7,381.2h143.4v50H429.7V381.2z"/>
	<g>
		<path class="st6" d="M496.2,412.5v-10.9h1.4v4.7c0.3-0.6,1.2-1.2,2.4-1.2c2.2,0,3.3,1.7,3.3,3.8c0,2.1-1.2,3.8-3.4,3.8
			c-1.1,0-1.9-0.5-2.3-1.2v1L496.2,412.5L496.2,412.5z M499.7,406.3c-1.2,0-2.1,1-2.1,2.5c0,1.6,0.9,2.6,2.1,2.6
			c1.3,0,2.1-1,2.1-2.6C501.9,407.3,501,406.3,499.7,406.3z"/>
		<path class="st6" d="M509.9,406.7c-0.2,0-0.4,0-0.6,0c-1.2,0-2,0.6-2,2.2v3.6h-1.4v-7.2h1.4v1.3c0.5-1.1,1.4-1.4,2.2-1.4
			c0.2,0,0.4,0,0.5,0v1.5H509.9z"/>
		<path class="st6" d="M513.8,408.4l2-0.3c0.4-0.1,0.6-0.3,0.6-0.5c0-0.7-0.5-1.3-1.6-1.3c-1,0-1.5,0.6-1.6,1.5l-1.3-0.3
			c0.1-1.4,1.4-2.3,3-2.3c2.2,0,3,1.2,3,2.6v3.6c0,0.6,0.1,1,0.1,1.2h-1.4c0-0.2-0.1-0.5-0.1-1c-0.3,0.5-1,1.2-2.3,1.2
			c-1.5,0-2.4-1-2.4-2.2C511.7,409.3,512.6,408.6,513.8,408.4z M516.4,409.4v-0.3l-2.2,0.3c-0.6,0.1-1.1,0.4-1.1,1.1
			c0,0.5,0.5,1,1.2,1C515.4,411.5,516.4,411,516.4,409.4z"/>
		<path class="st6" d="M522.1,412.5h-1.4v-7.2h1.4v1c0.5-0.9,1.4-1.2,2.2-1.2c1.7,0,2.6,1.2,2.6,2.8v4.6h-1.4v-4.3
			c0-1-0.4-1.8-1.7-1.8c-1.1,0-1.7,0.9-1.7,2L522.1,412.5L522.1,412.5z"/>
		<path class="st6" d="M530.7,408.9c0,1.7,1,2.5,2.2,2.5c1.3,0,1.8-0.9,2-1.5l1.2,0.5c-0.3,1-1.4,2.2-3.3,2.2
			c-2.1,0-3.6-1.6-3.6-3.8c0-2.2,1.6-3.8,3.6-3.8c1.9,0,2.9,1.2,3.2,2.3l-1.3,0.5c-0.2-0.7-0.7-1.5-1.9-1.5
			C531.8,406.4,530.7,407.2,530.7,408.9z"/>
		<path class="st6" d="M540,412.5h-1.4v-10.9h1.4v4.5c0.5-0.8,1.4-1,2.2-1c1.7,0,2.6,1.2,2.6,2.8v4.6h-1.4v-4.3c0-1-0.4-1.8-1.7-1.8
			c-1.1,0-1.7,0.8-1.7,1.9L540,412.5L540,412.5z"/>
		<g>
			<path class="st6" d="M459.2,412.7v-10h2l2.4,7.1c0.2,0.7,0.4,1.2,0.5,1.5c0.1-0.4,0.3-0.9,0.5-1.6l2.4-7h1.8v10h-1.3v-8.4
				l-2.9,8.4h-1.2l-2.9-8.5v8.5H459.2z"/>
			<path class="st6" d="M476.2,411.8c-0.5,0.4-0.9,0.7-1.3,0.8c-0.4,0.2-0.9,0.2-1.4,0.2c-0.8,0-1.4-0.2-1.8-0.6
				c-0.4-0.4-0.6-0.9-0.6-1.5c0-0.4,0.1-0.7,0.2-1c0.2-0.3,0.4-0.5,0.6-0.7c0.3-0.2,0.6-0.3,0.9-0.4c0.2-0.1,0.6-0.1,1.1-0.2
				c1-0.1,1.7-0.3,2.2-0.4c0-0.2,0-0.3,0-0.3c0-0.5-0.1-0.9-0.3-1.1c-0.3-0.3-0.8-0.4-1.4-0.4c-0.6,0-1,0.1-1.3,0.3
				c-0.3,0.2-0.5,0.6-0.6,1.1l-1.2-0.2c0.1-0.5,0.3-0.9,0.5-1.2c0.3-0.3,0.6-0.6,1.1-0.7c0.5-0.2,1-0.3,1.6-0.3s1.1,0.1,1.5,0.2
				s0.7,0.3,0.9,0.6c0.2,0.2,0.3,0.5,0.4,0.8c0,0.2,0.1,0.6,0.1,1.1v1.6c0,1.1,0,1.9,0.1,2.2c0.1,0.3,0.2,0.6,0.3,0.9h-1.3
				C476.3,412.5,476.2,412.2,476.2,411.8z M476.1,409.1c-0.4,0.2-1.1,0.3-2,0.5c-0.5,0.1-0.9,0.2-1.1,0.2c-0.2,0-0.4,0.2-0.5,0.4
				c-0.1,0.2-0.2,0.4-0.2,0.6c0,0.3,0.1,0.6,0.4,0.8c0.2,0.2,0.6,0.3,1.1,0.3s0.9-0.1,1.3-0.3c0.4-0.2,0.6-0.5,0.8-0.9
				c0.1-0.3,0.2-0.7,0.2-1.2V409.1L476.1,409.1z"/>
			<path class="st6" d="M479.9,404.1v-1.4h1.2v1.4H479.9z M479.9,412.7v-7.3h1.2v7.3H479.9z"/>
			<path class="st6" d="M483.7,412.7v-7.3h1.1v1c0.5-0.8,1.3-1.2,2.3-1.2c0.4,0,0.8,0.1,1.2,0.2c0.4,0.2,0.6,0.4,0.8,0.6
				s0.3,0.6,0.4,0.9c0,0.2,0.1,0.6,0.1,1.2v4.5h-1.2v-4.4c0-0.5,0-0.9-0.1-1.1s-0.3-0.4-0.5-0.6c-0.2-0.1-0.5-0.2-0.9-0.2
				c-0.5,0-1,0.2-1.4,0.5s-0.6,1-0.6,1.9v4H483.7z"/>
		</g>
	</g>
</g>
</svg>
